# xmcd
#
# Track frame offsets:
# 150
# 21095
# 31418
# 49598
# 67403
#
# Disc length: 1300 seconds
#
# Revision: 1
# Processed by: cddbd v1.5.1PL2 Copyright (c) Steve Scherf et al.
# Submitted via: Audion 3.0.2 (http://www.panic.com/audion/)
#
DISCID=40051205
DTITLE=September Equation - Untitled EP
DYEAR=2003
DGENRE=Glitch
TTITLE0=User and Program
TTITLE1=The Future Better Be Ready
TTITLE2=How Much It Takes
TTITLE3=Eperiaum 1.3
TTITLE4=Trains Coming From the Sky
EXTD=
EXTT0=
EXTT1=
EXTT2=
EXTT3=
EXTT4=
PLAYORDER=
